/* XPM */
static char * baan_xpm[] = {
"32 32 11 1",
" 	c None",
".	c #0000FF",
"+	c #00FFFF",
"@	c #FFFFFF",
"#	c #000000",
"$	c #FF0000",
"%	c #000080",
"&	c #808080",
"*	c #008080",
"=	c #00FF00",
"-	c #008000",
"................................",
".++++++++++++++++++++++++++++++.",
".++++++++++++++++++++++++++++++.",
".++++++++++++++++++++++++++++++.",
".++++++++++++++@@@+++++++++++++.",
".++++++++++++++@@@+++++++++++++.",
".+++++++++@@@++++++++++++++++++.",
".+++++++++@@@++++++++++++++++++.",
".++++@@@++@@+++++++++++++++++++.",
".++++@@@+++++++++++++++++++++++.",
".++++++++++++++++++++++++++++++.",
".+++++++++++++++++++++#######++.",
".++++###++++++++++++++##+++##++.",
".++++###++++++++++++++##+++##++.",
".++++###++++++++++++++##+++##++.",
".++++###++####++###+++#######++.",
".+++#########################++.",
".++##########################++.",
".++##########################++.",
".++##########################++.",
".++###########################+.",
".++###########################+.",
".+###++$$+++++$$++++++$$#####++.",
".+++++$$$$+++$$$$++++$$$$++++++.",
".+++++$$$$+++$$$$++++$$$$++++++.",
"%##############################%",
"%##############################%",
"%&&&&&&&&&&&&&&&&&&&&&&&&&&&&&&%",
"%&&&&&&&&&&&&&&&&&&&&&&&&&&&&&&%",
"%*====-===-@@=@@@==**====-&==@-%",
"%===**=====@@===@@=@-====@@=@-@%",
"%%%%%%%%%%%%%%%%%%%%%%%%%%%%%%%%"};
