/* XPM */
static char * test_xpm[] = {
"38 18 256 2",
"  	c #000000",
". 	c #000040",
"+ 	c #000080",
"@ 	c #0000FF",
"# 	c #002000",
"$ 	c #002040",
"% 	c #002080",
"& 	c #0020FF",
"* 	c #004000",
"= 	c #004040",
"- 	c #004080",
"; 	c #0040FF",
"> 	c #006000",
", 	c #006040",
"' 	c #006080",
") 	c #0060FF",
"! 	c #008000",
"~ 	c #008040",
"{ 	c #008080",
"] 	c #0080FF",
"^ 	c #00A000",
"/ 	c #00A040",
"( 	c #00A080",
"_ 	c #00A0FF",
": 	c #00C000",
"< 	c #00C040",
"[ 	c #00C080",
"} 	c #00C0FF",
"| 	c #00FF00",
"1 	c #00FF40",
"2 	c #00FF80",
"3 	c #00FFFF",
"4 	c #200000",
"5 	c #200040",
"6 	c #200080",
"7 	c #2000FF",
"8 	c #202000",
"9 	c #202040",
"0 	c #202080",
"a 	c #2020FF",
"b 	c #204000",
"c 	c #204040",
"d 	c #204080",
"e 	c #2040FF",
"f 	c #206000",
"g 	c #206040",
"h 	c #206080",
"i 	c #2060FF",
"j 	c #208000",
"k 	c #208040",
"l 	c #208080",
"m 	c #2080FF",
"n 	c #20A000",
"o 	c #20A040",
"p 	c #20A080",
"q 	c #20A0FF",
"r 	c #20C000",
"s 	c #20C040",
"t 	c #20C080",
"u 	c #20C0FF",
"v 	c #20FF00",
"w 	c #20FF40",
"x 	c #20FF80",
"y 	c #20FFFF",
"z 	c #400000",
"A 	c #400040",
"B 	c #400080",
"C 	c #4000FF",
"D 	c #402000",
"E 	c #402040",
"F 	c #402080",
"G 	c #4020FF",
"H 	c #404000",
"I 	c #404040",
"J 	c #404080",
"K 	c #4040FF",
"L 	c #406000",
"M 	c #406040",
"N 	c #406080",
"O 	c #4060FF",
"P 	c #408000",
"Q 	c #408040",
"R 	c #408080",
"S 	c #4080FF",
"T 	c #40A000",
"U 	c #40A040",
"V 	c #40A080",
"W 	c #40A0FF",
"X 	c #40C000",
"Y 	c #40C040",
"Z 	c #40C080",
"` 	c #40C0FF",
" .	c #40FF00",
"..	c #40FF40",
"+.	c #40FF80",
"@.	c #40FFFF",
"#.	c #600000",
"$.	c #600040",
"%.	c #600080",
"&.	c #6000FF",
"*.	c #602000",
"=.	c #602040",
"-.	c #602080",
";.	c #6020FF",
">.	c #604000",
",.	c #604040",
"'.	c #604080",
").	c #6040FF",
"!.	c #606000",
"~.	c #606040",
"{.	c #606080",
"].	c #6060FF",
"^.	c #608000",
"/.	c #608040",
"(.	c #608080",
"_.	c #6080FF",
":.	c #60A000",
"<.	c #60A040",
"[.	c #60A080",
"}.	c #60A0FF",
"|.	c #60C000",
"1.	c #60C040",
"2.	c #60C080",
"3.	c #60C0FF",
"4.	c #60FF00",
"5.	c #60FF40",
"6.	c #60FF80",
"7.	c #60FFFF",
"8.	c #800000",
"9.	c #800040",
"0.	c #800080",
"a.	c #8000FF",
"b.	c #802000",
"c.	c #802040",
"d.	c #802080",
"e.	c #8020FF",
"f.	c #804000",
"g.	c #804040",
"h.	c #804080",
"i.	c #8040FF",
"j.	c #806000",
"k.	c #806040",
"l.	c #806080",
"m.	c #8060FF",
"n.	c #808000",
"o.	c #808040",
"p.	c #808080",
"q.	c #8080FF",
"r.	c #80A000",
"s.	c #80A040",
"t.	c #80A080",
"u.	c #80A0FF",
"v.	c #80C000",
"w.	c #80C040",
"x.	c #80C080",
"y.	c #80C0FF",
"z.	c #80FF00",
"A.	c #80FF40",
"B.	c #80FF80",
"C.	c #80FFFF",
"D.	c #A00000",
"E.	c #A00040",
"F.	c #A00080",
"G.	c #A000FF",
"H.	c #A02000",
"I.	c #A02040",
"J.	c #A02080",
"K.	c #A020FF",
"L.	c #A04000",
"M.	c #A04040",
"N.	c #A04080",
"O.	c #A040FF",
"P.	c #A06000",
"Q.	c #A06040",
"R.	c #A06080",
"S.	c #A060FF",
"T.	c #A08000",
"U.	c #A08040",
"V.	c #A08080",
"W.	c #A080FF",
"X.	c #A0A000",
"Y.	c #A0A040",
"Z.	c #A0A080",
"`.	c #A0A0FF",
" +	c #A0C000",
".+	c #A0C040",
"++	c #A0C080",
"@+	c #A0C0FF",
"#+	c #A0FF00",
"$+	c #A0FF40",
"%+	c #A0FF80",
"&+	c #A0FFFF",
"*+	c #C00000",
"=+	c #C00040",
"-+	c #C00080",
";+	c #C000FF",
">+	c #C02000",
",+	c #C02040",
"'+	c #C02080",
")+	c #C020FF",
"!+	c #C04000",
"~+	c #C04040",
"{+	c #C04080",
"]+	c #C040FF",
"^+	c #C06000",
"/+	c #C06040",
"(+	c #C06080",
"_+	c #C060FF",
":+	c #C08000",
"<+	c #C08040",
"[+	c #C08080",
"}+	c #C080FF",
"|+	c #C0A000",
"1+	c #C0A040",
"2+	c #C0A080",
"3+	c #C0A0FF",
"4+	c #C0C000",
"5+	c #C0C040",
"6+	c #C0C080",
"7+	c #C0C0FF",
"8+	c #C0FF00",
"9+	c #C0FF40",
"0+	c #C0FF80",
"a+	c #C0FFFF",
"b+	c #FF0000",
"c+	c #FF0040",
"d+	c #FF0080",
"e+	c #FF00FF",
"f+	c #FF2000",
"g+	c #FF2040",
"h+	c #FF2080",
"i+	c #FF20FF",
"j+	c #FF4000",
"k+	c #FF4040",
"l+	c #FF4080",
"m+	c #FF40FF",
"n+	c #FF6000",
"o+	c #FF6040",
"p+	c #FF6080",
"q+	c #FF60FF",
"r+	c #FF8000",
"s+	c #FF8040",
"t+	c #FF8080",
"u+	c #FF80FF",
"v+	c #FFA000",
"w+	c #FFA040",
"x+	c #FFA080",
"y+	c #FFA0FF",
"z+	c #FFC000",
"A+	c #FFC040",
"B+	c #FFC080",
"C+	c #FFC0FF",
"D+	c #FFFF00",
"E+	c #FFFF40",
"F+	c #FFFF80",
"G+	c #FFFFFF",
"G+G+G+G+G+G+G+G+G+G+G+G+G+G+G+G+G+G+G+G+G+G+G+G+G+G+G+G+G+G+G+G+G+G+G+G+G+G+",
"G+G+G+G+G+G+G+G+G+G+G+G+G+G+G+G+G+G+G+G+G+G+G+G+G+G+G+G+G+G+G+G+G+G+G+G+G+G+",
"G+G+G+G+G+G+G+          G+          G+G+        G+G+          G+G+G+G+G+G+G+",
"G+G+G+G+G+G+G+G+G+  G+G+G+  G+G+G+G+G+  G+G+G+G+  G+G+G+  G+G+G+G+G+G+G+G+G+",
"G+G+G+G+G+G+G+G+G+  G+G+G+  G+G+G+G+G+  G+G+G+G+G+G+G+G+  G+G+G+G+G+G+G+G+G+",
"G+G+G+G+G+G+G+G+G+  G+G+G+          G+G+    G+G+G+G+G+G+  G+G+G+G+G+G+G+G+G+",
"G+G+G+G+G+G+G+G+G+  G+G+G+  G+G+G+G+G+G+G+G+    G+G+G+G+  G+G+G+G+G+G+G+G+G+",
"G+G+G+G+G+G+G+G+G+  G+G+G+  G+G+G+G+G+G+G+G+G+G+  G+G+G+  G+G+G+G+G+G+G+G+G+",
"G+G+G+G+G+G+G+G+G+  G+G+G+  G+G+G+G+G+  G+G+G+G+  G+G+G+  G+G+G+G+G+G+G+G+G+",
"G+G+G+G+G+G+G+G+G+  G+G+G+          G+G+        G+G+G+G+  G+G+G+G+G+G+G+G+G+",
"G+G+G+G+G+G+G+G+G+G+G+G+G+G+G+G+G+G+G+G+G+G+G+G+G+G+G+G+G+G+G+G+G+G+G+G+G+G+",
"G+G+G+G+G+G+G+G+G+G+G+G+G+G+G+G+G+G+G+G+G+G+G+G+G+G+G+G+G+G+G+G+G+G+G+G+G+G+",
"G+G+G+G+G+G+G+G+G+b+b+b+b+b+b+b+b+b+b+b+b+b+b+b+b+b+b+G+G+G+G+G+G+G+G+G+G+G+",
"G+G+G+G+G+G+G+G+G+b+b+b+b+b+b+b+b+b+b+b+b+b+b+b+b+b+b+G+G+G+G+G+G+G+G+G+G+G+",
"G+G+G+G+G+G+G+G+  b+b+b+b+b+b+b+b+b+b+b+b+b+b+b+b+b+b+  G+G+G+G+G+G+G+G+G+G+",
"G+G+G+G+G+G+G+G+G+G+G+      G+G+G+G+G+G+G+G+      G+G+G+G+G+G+G+G+G+G+G+G+G+",
"G+G+G+G+G+G+G+G+G+G+G+G+  G+G+G+G+G+G+G+G+G+G+  G+G+G+G+G+G+G+G+G+G+G+G+G+G+",
"G+G+G+G+G+G+G+G+G+G+G+G+G+G+G+G+G+G+G+G+G+G+G+G+G+G+G+G+G+G+G+G+G+G+G+G+G+G+"};
